<svg xmlns="http://www.w3.org/2000/svg" width="512" height="512" viewBox="0 0 512 512" version="1.1"><path d="M 64 256.490 L 64 367.012 146.250 366.756 L 228.500 366.500 228.500 311.500 L 228.500 256.500 201.266 256.234 L 174.032 255.968 173.766 228.734 L 173.500 201.500 146.266 201.234 L 119.032 200.968 118.766 173.734 L 118.500 146.500 91.250 146.234 L 64 145.968 64 256.490 M 284 256.500 L 284 367.032 311.250 366.766 L 338.500 366.500 338.759 311.750 L 339.017 257 366.509 257 L 394 257 394 312.016 L 394 367.032 421.250 366.766 L 448.500 366.500 448.500 311.500 L 448.500 256.500 421.266 256.234 L 394.032 255.968 393.766 228.734 L 393.500 201.500 366.266 201.234 L 339.032 200.968 338.766 173.734 L 338.500 146.500 311.250 146.234 L 284 145.968 284 256.500 M 119 284 L 119 311 146.500 311 L 174 311 174 284 L 174 257 146.500 257 L 119 257 119 284" stroke="none" fill="#fbf8f8" fill-rule="evenodd"/><path d="M 232.500 0.598 C 230.850 0.827, 224.458 1.705, 218.296 2.551 C 175.990 8.353, 130.550 28.146, 95.500 56.037 C 52.745 90.059, 20.273 141.124, 7.004 195.203 C 1.547 217.444, 0.524 227.049, 0.524 256 C 0.524 284.951, 1.547 294.556, 7.004 316.797 C 18.356 363.065, 43.629 407.171, 77.626 440.049 C 115.751 476.918, 164.593 501.108, 218.203 509.672 C 227.029 511.082, 235.296 511.476, 256 511.476 C 284.951 511.476, 294.556 510.453, 316.797 504.996 C 351.939 496.374, 388.009 478.635, 416.500 455.963 C 466.855 415.894, 503.251 350.930, 510.042 289 C 510.675 283.225, 511.599 277.719, 512.096 276.764 C 513.374 274.309, 513.281 233.708, 512 234.500 C 511.405 234.868, 511 233.675, 511 231.552 C 511 225.927, 508.187 208.523, 505.334 196.500 C 496.574 159.577, 476.779 120.257, 452.222 91 C 412.856 44.101, 356.541 12.479, 294.500 2.437 C 284.968 0.894, 239.986 -0.440, 232.500 0.598 M 64 256.490 L 64 367.012 146.250 366.756 L 228.500 366.500 228.500 311.500 L 228.500 256.500 201.266 256.234 L 174.032 255.968 173.766 228.734 L 173.500 201.500 146.266 201.234 L 119.032 200.968 118.766 173.734 L 118.500 146.500 91.250 146.234 L 64 145.968 64 256.490 M 284 256.500 L 284 367.032 311.250 366.766 L 338.500 366.500 338.759 311.750 L 339.017 257 366.509 257 L 394 257 394 312.016 L 394 367.032 421.250 366.766 L 448.500 366.500 448.500 311.500 L 448.500 256.500 421.266 256.234 L 394.032 255.968 393.766 228.734 L 393.500 201.500 366.266 201.234 L 339.032 200.968 338.766 173.734 L 338.500 146.500 311.250 146.234 L 284 145.968 284 256.500 M 0.425 256 C 0.425 267.825, 0.569 272.663, 0.746 266.750 C 0.923 260.837, 0.923 251.162, 0.746 245.250 C 0.569 239.338, 0.425 244.175, 0.425 256 M 119 284 L 119 311 146.500 311 L 174 311 174 284 L 174 257 146.500 257 L 119 257 119 284" stroke="none" fill="#d40404" fill-rule="evenodd"/></svg>